HIERARCHY
ROOT Hips
{
	OFFSET -0.001795 -0.223333 0.028219
	CHANNELS 6 Xposition Yposition Zposition Zrotation Yrotation Xrotation 
	JOINT LeftUpLeg
	{
		OFFSET 0.069520 -0.091406 -0.006815
		CHANNELS 3 Zrotation Yrotation Xrotation
		JOINT LeftLeg
		{
			OFFSET 0.034277 -0.375199 -0.004496
			CHANNELS 3 Zrotation Yrotation Xrotation
			JOINT LeftFoot
			{
				OFFSET -0.013596 -0.397961 -0.043693
				CHANNELS 3 Zrotation Yrotation Xrotation
				JOINT LeftToe
				{
					OFFSET 0.026358 -0.055791 0.119288
					CHANNELS 3 Zrotation Yrotation Xrotation
					End Site
					{
						OFFSET 0.000000 0.000000 0.000000
					}
				}
			}
		}
	}
	JOINT RightUpLeg
	{
		OFFSET -0.067670 -0.090522 -0.004320
		CHANNELS 3 Zrotation Yrotation Xrotation
		JOINT RightLeg
		{
			OFFSET -0.038290 -0.382569 -0.008850
			CHANNELS 3 Zrotation Yrotation Xrotation
			JOINT RightFoot
			{
				OFFSET 0.015774 -0.398415 -0.042312
				CHANNELS 3 Zrotation Yrotation Xrotation
				JOINT RightToe
				{
					OFFSET -0.025372 -0.048144 0.123348
					CHANNELS 3 Zrotation Yrotation Xrotation
					End Site
					{
						OFFSET 0.000000 0.000000 0.000000
					}
				}
			}
		}
	}
	JOINT Spine
	{
		OFFSET -0.002533 0.108963 -0.026696
		CHANNELS 3 Zrotation Yrotation Xrotation
		JOINT Spine1
		{
			OFFSET 0.005487 0.135180 0.001092
			CHANNELS 3 Zrotation Yrotation Xrotation
			JOINT Spine2
			{
				OFFSET 0.001457 0.052922 0.025425
				CHANNELS 3 Zrotation Yrotation Xrotation
				JOINT Neck
				{
					OFFSET -0.002778 0.213870 -0.042857
					CHANNELS 3 Zrotation Yrotation Xrotation
					JOINT Head
					{
						OFFSET 0.005152 0.064970 0.051349
						CHANNELS 3 Zrotation Yrotation Xrotation
						End Site
						{
							OFFSET 0.000000 0.000000 0.000000
						}
					}
				}
				JOINT LeftShoulder
				{
					OFFSET 0.078845 0.121749 -0.034090
					CHANNELS 3 Zrotation Yrotation Xrotation
					JOINT LeftArm
					{
						OFFSET 0.090977 0.030469 -0.008868
						CHANNELS 3 Zrotation Yrotation Xrotation
						JOINT LeftForeArm
						{
							OFFSET 0.259612 -0.012772 -0.027456
							CHANNELS 3 Zrotation Yrotation Xrotation
							JOINT LeftHand
							{
								OFFSET 0.249234 0.008986 -0.001171
								CHANNELS 3 Zrotation Yrotation Xrotation
								End Site
								{
									OFFSET 0.000000 0.000000 0.000000
								}
							}
						}
					}
				}
				JOINT RightShoulder
				{
					OFFSET -0.081759 0.118833 -0.038615
					CHANNELS 3 Zrotation Yrotation Xrotation
					JOINT RightArm
					{
						OFFSET -0.096012 0.032551 -0.009143
						CHANNELS 3 Zrotation Yrotation Xrotation
						JOINT RightForeArm
						{
							OFFSET -0.253742 -0.013329 -0.021401
							CHANNELS 3 Zrotation Yrotation Xrotation
							JOINT RightHand
							{
								OFFSET -0.255298 0.007772 -0.005559
								CHANNELS 3 Zrotation Yrotation Xrotation
								End Site
								{
									OFFSET 0.000000 0.000000 0.000000
								}
							}
						}
					}
				}
			}
		}
	}
}
MOTION
Frames: 16
Frame Time: 0.050000
0.084490 0.954890 -0.026555 -4.539042 20.574998 7.403209 13.076221 -0.999010 -8.964993 -3.697598 0.201115 -3.185184 4.234677 14.551581 17.315485 0.000000 0.000000 0.000000 -5.522487 0.437184 -12.919343 1.994158 -0.291246 1.175480 -2.856624 -8.022542 19.546648 0.000000 0.000000 0.000000 -4.897617 -0.540928 18.417383 5.091325 -0.653195 -16.464801 -0.335970 0.291676 27.472743 -7.926384 7.781470 -22.840196 0.000000 0.000000 0.000000 -20.672480 -14.039140 2.968737 -48.730088 -31.994325 5.470634 3.290580 -38.819374 -0.108656 0.000000 0.000000 0.000000 9.039425 16.733280 8.740240 56.615976 22.980099 4.090042 31.576233 65.869875 27.998514 0.000000 0.000000 0.000000 
0.083859 0.955014 -0.026845 -4.662611 20.608920 7.454853 13.534668 -1.018623 -9.191137 -4.074711 0.210671 -3.172140 4.410154 14.872742 17.729878 0.000000 0.000000 0.000000 -5.403424 0.454001 -12.958587 2.056692 -0.302161 0.991783 -3.037605 -8.328747 19.680153 0.000000 0.000000 0.000000 -5.024018 -0.536136 18.634038 4.894402 -0.601072 -16.327951 -0.309385 0.776375 27.421111 -8.442028 8.123650 -23.077198 0.000000 0.000000 0.000000 -20.264178 -14.345277 3.020812 -48.136419 -32.702848 5.659647 4.009565 -37.854975 -0.397060 0.000000 0.000000 0.000000 8.784657 17.381734 9.035379 56.441137 24.586797 4.971992 30.447795 66.942200 27.857617 0.000000 0.000000 0.000000 
0.083303 0.955377 -0.027025 -4.661283 20.806954 7.398334 13.676202 -1.030924 -9.088549 -4.329032 0.212704 -3.307060 4.306795 14.738070 17.690784 0.000000 0.000000 0.000000 -5.268341 0.466106 -12.783897 2.114175 -0.314247 0.645579 -3.006899 -8.255446 19.805895 0.000000 0.000000 0.000000 -5.180743 -0.543921 19.022793 4.505697 -0.491669 -16.055527 -0.026157 1.104499 27.258931 -8.640954 8.282222 -22.756839 0.000000 0.000000 0.000000 -19.732961 -14.890286 3.248351 -47.894147 -33.317607 5.854675 4.526322 -37.337362 -0.600402 0.000000 0.000000 0.000000 8.098287 17.821576 9.079118 56.278023 25.703116 5.662072 29.603384 67.711364 27.682139 0.000000 0.000000 0.000000 
0.082766 0.955724 -0.027098 -4.693174 21.249870 7.239407 13.845426 -1.051462 -9.108033 -4.508694 0.212900 -3.177501 4.237548 14.734809 17.889291 0.000000 0.000000 0.000000 -5.155914 0.464035 -12.560069 2.207387 -0.332549 0.536246 -3.347049 -8.750483 19.921231 0.000000 0.000000 0.000000 -5.482733 -0.550394 19.568121 4.592151 -0.515211 -15.991144 -0.094646 1.504188 27.300846 -8.798356 8.439718 -23.021907 0.000000 0.000000 0.000000 -19.765891 -15.621001 3.448980 -47.261804 -34.438774 6.226054 5.245641 -36.456584 -0.862574 0.000000 0.000000 0.000000 7.911459 18.077117 9.215491 55.860137 26.002147 5.795158 30.419560 68.532748 28.826772 0.000000 0.000000 0.000000 
0.082219 0.955702 -0.027100 -4.668306 21.980696 7.266450 13.944392 -1.083748 -9.380324 -4.662829 0.207597 -3.075347 4.051481 14.584734 17.961982 0.000000 0.000000 0.000000 -5.278627 0.430683 -12.571891 2.513396 -0.385906 0.700648 -3.496778 -8.870898 19.803695 0.000000 0.000000 0.000000 -5.700550 -0.573605 20.011441 4.399942 -0.435875 -16.027382 -0.215527 1.366833 27.230517 -9.048621 8.594150 -22.950168 0.000000 0.000000 0.000000 -19.222245 -16.020639 3.633967 -47.651316 -35.527552 6.710575 5.430271 -36.456943 -0.938020 0.000000 0.000000 0.000000 7.701042 17.922576 9.118744 55.528014 25.430560 5.474877 36.020319 68.820682 33.225764 0.000000 0.000000 0.000000 
0.081636 0.955506 -0.027010 -4.648298 22.944327 7.112651 13.972848 -1.118519 -9.523967 -4.656230 0.194776 -3.040893 3.866588 14.443759 17.959704 0.000000 0.000000 0.000000 -5.345681 0.392320 -12.396085 2.672288 -0.419550 0.769610 -3.937343 -9.440834 19.865996 0.000000 0.000000 0.000000 -5.894536 -0.648330 20.839428 4.307999 -0.373079 -16.220460 -0.390819 1.405597 27.192774 -9.223438 8.747780 -22.877207 0.000000 0.000000 0.000000 -19.310362 -16.943703 3.951022 -47.698602 -36.776355 7.277561 5.369485 -36.244707 -0.940592 0.000000 0.000000 0.000000 7.393383 17.726639 9.006021 55.047410 23.927841 4.678772 44.485367 69.326315 40.232015 0.000000 0.000000 0.000000 
0.081210 0.954859 -0.026846 -4.658855 23.803743 6.929712 14.052407 -1.148550 -9.987033 -4.621426 0.194931 -2.305104 3.530644 13.961157 17.382375 0.000000 0.000000 0.000000 -5.423744 0.355268 -12.529681 3.017552 -0.491728 1.587065 -4.004187 -9.402283 19.440040 0.000000 0.000000 0.000000 -6.192240 -0.695822 21.539444 4.210657 -0.321510 -16.291999 -0.772474 1.423295 27.014701 -9.708630 9.053320 -22.799189 0.000000 0.000000 0.000000 -19.164301 -17.316726 4.008923 -48.245841 -37.987389 7.933470 5.094491 -35.961014 -0.871887 0.000000 0.000000 0.000000 7.379593 17.613551 9.008989 54.664750 22.561348 3.967532 51.747343 68.842131 45.764179 0.000000 0.000000 0.000000 
0.080852 0.954017 -0.026556 -4.524084 24.524781 6.855855 13.889117 -1.165938 -10.078440 -4.413593 0.183826 -2.122203 3.233787 13.730809 17.638814 0.000000 0.000000 0.000000 -5.491013 0.321057 -12.443339 3.115076 -0.521494 1.942546 -4.304931 -9.788303 19.237980 0.000000 0.000000 0.000000 -6.351241 -0.762325 22.210922 3.835230 -0.163247 -16.752749 -0.697795 1.730599 27.366639 -10.056449 9.343446 -22.883886 0.000000 0.000000 0.000000 -19.282736 -18.378884 4.340563 -48.560335 -39.051830 8.477529 5.867203 -35.220129 -1.129157 0.000000 0.000000 0.000000 7.107268 17.579722 8.996945 54.775898 21.960615 3.741794 54.376324 68.792085 48.094386 0.000000 0.000000 0.000000 
0.080660 0.953045 -0.026252 -4.551056 25.179054 6.647227 14.043043 -1.193903 -10.318782 -4.346167 0.179878 -1.628147 3.045541 13.448130 17.248148 0.000000 0.000000 0.000000 -5.482607 0.299337 -12.393078 3.127242 -0.538824 2.410935 -4.404810 -9.846939 19.221418 0.000000 0.000000 0.000000 -6.450661 -0.825052 22.668208 3.575890 -0.067583 -16.823632 -0.930793 1.889047 27.437179 -10.098269 9.432409 -22.645594 0.000000 0.000000 0.000000 -19.473546 -18.826090 4.391662 -48.553528 -39.872618 8.876685 5.802866 -34.127288 -1.092975 0.000000 0.000000 0.000000 6.922307 17.868191 9.124741 55.009331 21.941966 3.840589 54.044115 68.676177 47.812345 0.000000 0.000000 0.000000 
0.080363 0.952432 -0.025881 -4.542449 25.757002 6.400123 13.986731 -1.207907 -10.283016 -4.344660 0.173872 -1.488931 2.948806 13.317659 17.037132 0.000000 0.000000 0.000000 -5.463682 0.279762 -12.132723 3.229765 -0.568532 2.530156 -4.489638 -9.900994 18.854199 0.000000 0.000000 0.000000 -6.609911 -0.911379 23.484097 3.266444 0.048012 -17.042631 -0.717115 2.220546 27.372456 -9.620391 9.234766 -22.656883 0.000000 0.000000 0.000000 -19.383806 -19.434569 4.512855 -48.838185 -40.397857 9.213580 6.260437 -33.176875 -1.234976 0.000000 0.000000 0.000000 6.160724 17.806942 8.914148 56.357197 22.383629 4.494586 49.873283 68.546927 44.491117 0.000000 0.000000 0.000000 
0.079879 0.952130 -0.025510 -4.600741 26.197560 6.265196 14.008895 -1.223793 -10.449273 -4.142455 0.164860 -1.336792 2.907559 13.282967 16.927760 0.000000 0.000000 0.000000 -5.180087 0.305173 -12.000621 3.274649 -0.584755 2.592572 -4.837874 -10.432540 18.551268 0.000000 0.000000 0.000000 -6.821310 -0.937429 23.866769 3.370447 0.030998 -17.200025 -0.734942 2.395189 27.437017 -9.392427 9.165362 -22.467778 0.000000 0.000000 0.000000 -19.242262 -19.617369 4.486227 -48.906059 -40.705845 9.359591 6.565467 -32.077236 -1.297052 0.000000 0.000000 0.000000 6.019422 18.109938 9.039368 57.271376 23.453163 5.320289 43.747532 68.644738 39.730900 0.000000 0.000000 0.000000 
0.079111 0.952266 -0.025037 -4.703929 26.658778 6.212719 14.250747 -1.255293 -10.575475 -4.200919 0.159985 -1.436692 2.828895 13.205981 16.873478 0.000000 0.000000 0.000000 -4.849243 0.339665 -11.858233 3.228737 -0.579926 2.505020 -5.138781 -10.869341 18.626475 0.000000 0.000000 0.000000 -6.967324 -0.974877 24.221634 3.294169 0.063306 -17.224433 -0.669984 2.390754 27.084606 -9.147900 9.037854 -22.152603 0.000000 0.000000 0.000000 -19.005453 -19.622077 4.428426 -48.975752 -40.881873 9.469993 6.581354 -31.082456 -1.268276 0.000000 0.000000 0.000000 5.686572 18.072159 8.931271 58.934748 23.924754 6.086597 38.870384 68.123427 35.586878 0.000000 0.000000 0.000000 
0.078105 0.952466 -0.024488 -4.837350 26.901667 6.169611 14.388029 -1.272426 -10.750152 -4.182452 0.157584 -1.307605 2.869634 13.279149 16.858335 0.000000 0.000000 0.000000 -4.387457 0.397061 -11.627165 3.258735 -0.584956 2.293216 -5.357022 -11.236956 18.104013 0.000000 0.000000 0.000000 -7.131429 -0.967686 24.317950 3.449954 0.025637 -17.317440 -0.626176 2.395906 27.243487 -9.110140 9.043413 -22.313216 0.000000 0.000000 0.000000 -18.874025 -19.451254 4.312737 -49.111209 -40.877803 9.465304 6.862169 -30.521652 -1.322658 0.000000 0.000000 0.000000 5.903654 18.180119 9.059942 59.872260 24.574904 6.664110 33.486197 67.986964 31.439157 0.000000 0.000000 0.000000 
0.077062 0.952676 -0.023961 -4.883740 27.092423 6.149573 14.340109 -1.277312 -10.859812 -4.015473 0.150938 -1.402066 2.655089 13.075077 17.009685 0.000000 0.000000 0.000000 -4.092552 0.432910 -11.555365 3.283089 -0.594412 2.388556 -5.490486 -11.444818 18.077186 0.000000 0.000000 0.000000 -7.282724 -0.968173 24.497477 3.875352 -0.106554 -17.189735 -0.697140 2.422088 26.911727 -8.746058 8.843582 -22.012417 0.000000 0.000000 0.000000 -19.156789 -19.346413 4.195987 -48.995960 -40.587235 9.387915 6.589719 -30.290771 -1.245503 0.000000 0.000000 0.000000 6.131961 18.441443 9.257322 60.558499 24.894268 7.043485 29.149709 67.320049 27.772510 0.000000 0.000000 0.000000 
0.076170 0.952609 -0.023689 -4.959529 27.198611 6.132024 14.344433 -1.281640 -11.037852 -3.946341 0.149635 -1.146096 2.742744 13.166556 16.887425 0.000000 0.000000 0.000000 -3.904723 0.455088 -11.509870 3.203677 -0.579084 2.317363 -5.357522 -11.208829 17.779188 0.000000 0.000000 0.000000 -7.373155 -0.979519 24.704850 4.155500 -0.175388 -17.470750 -0.737454 2.449203 27.101152 -8.623804 8.787983 -22.466231 0.000000 0.000000 0.000000 -19.239143 -19.351516 4.166269 -49.088824 -40.365742 9.315290 6.814871 -30.205126 -1.306661 0.000000 0.000000 0.000000 6.240060 18.429785 9.299440 61.813352 24.905814 7.354549 24.765211 66.246741 24.112736 0.000000 0.000000 0.000000 
0.075630 0.952389 -0.023665 -4.965493 27.350210 6.145047 14.294050 -1.287082 -11.223212 -3.705353 0.142350 -0.900957 2.640298 13.037773 16.818040 0.000000 0.000000 0.000000 -3.715202 0.478459 -11.548617 3.136197 -0.566737 2.252832 -5.132821 -10.779746 17.819762 0.000000 0.000000 0.000000 -7.386691 -0.986126 24.717938 4.514021 -0.296024 -17.163451 -0.853430 2.168722 26.794229 -8.525831 8.691247 -22.282459 0.000000 0.000000 0.000000 -19.421002 -19.362405 4.228093 -48.911973 -40.231908 9.262134 6.693321 -30.046746 -1.249878 0.000000 0.000000 0.000000 6.303013 18.521563 9.336428 62.586443 24.999715 7.597868 20.905056 64.961352 20.776325 0.000000 0.000000 0.000000 
